<svg width="325" height="87" viewBox="0 0 325 87" fill="none" xmlns="http://www.w3.org/2000/svg">
<g filter="url(#filter0_d_782_108294)">
<rect x="12.5" y="6" width="300" height="48.001" rx="8" fill="#FC4C02"/>
<rect x="84.5" y="6" width="156" height="48.001" rx="8" fill="#FC4C02"/>
<path d="M105.232 36V24.64H109.44C110.763 24.64 111.749 24.9867 112.4 25.68C113.061 26.3627 113.392 27.2747 113.392 28.416C113.392 29.632 113.019 30.5547 112.272 31.184C111.525 31.8027 110.507 32.112 109.216 32.112H107.456V36H105.232ZM107.456 30.128H108.976C109.659 30.128 110.176 29.9733 110.528 29.664C110.88 29.344 111.056 28.9173 111.056 28.384C111.056 27.84 110.885 27.4133 110.544 27.104C110.213 26.7947 109.728 26.64 109.088 26.64H107.456V30.128ZM118.179 36.144C117.091 36.144 116.195 35.7707 115.491 35.024C114.798 34.2773 114.451 33.3067 114.451 32.112C114.451 30.9387 114.798 29.9733 115.491 29.216C116.195 28.448 117.075 28.064 118.131 28.064C119.102 28.064 119.87 28.4053 120.435 29.088L120.467 29.072V28.176H122.563V36H120.563V35.072L120.531 35.056C119.966 35.7813 119.182 36.144 118.179 36.144ZM118.579 34.256C119.134 34.256 119.603 34.0587 119.987 33.664C120.371 33.2693 120.563 32.7573 120.563 32.128C120.563 31.4987 120.371 30.976 119.987 30.56C119.614 30.144 119.145 29.936 118.579 29.936C118.003 29.936 117.523 30.1387 117.139 30.544C116.766 30.9387 116.579 31.4667 116.579 32.128C116.579 32.7573 116.766 33.2693 117.139 33.664C117.513 34.0587 117.993 34.256 118.579 34.256ZM128.092 39.296C126.876 39.296 125.809 39.0347 124.892 38.512L125.388 36.736C126.262 37.2267 127.11 37.472 127.932 37.472C128.625 37.472 129.164 37.3067 129.548 36.976C129.932 36.6453 130.124 36.2347 130.124 35.744V34.96H130.092C129.516 35.5573 128.758 35.856 127.82 35.856C126.742 35.856 125.852 35.4987 125.148 34.784C124.444 34.0693 124.092 33.1467 124.092 32.016C124.092 30.864 124.433 29.92 125.116 29.184C125.798 28.4373 126.662 28.064 127.708 28.064C128.646 28.064 129.43 28.3733 130.06 28.992H130.092V28.176H132.188V35.104C132.188 37.8987 130.822 39.296 128.092 39.296ZM126.78 33.424C127.153 33.7867 127.628 33.968 128.204 33.968C128.78 33.968 129.249 33.7813 129.612 33.408C129.985 33.024 130.172 32.5333 130.172 31.936C130.172 31.3493 129.985 30.8747 129.612 30.512C129.238 30.1387 128.769 29.952 128.204 29.952C127.617 29.952 127.137 30.1387 126.764 30.512C126.401 30.8853 126.22 31.3653 126.22 31.952C126.22 32.56 126.406 33.0507 126.78 33.424ZM137.461 36.144C136.373 36.144 135.477 35.7707 134.773 35.024C134.079 34.2773 133.733 33.3067 133.733 32.112C133.733 30.9387 134.079 29.9733 134.773 29.216C135.477 28.448 136.357 28.064 137.413 28.064C138.383 28.064 139.151 28.4053 139.717 29.088L139.749 29.072V28.176H141.845V36H139.845V35.072L139.813 35.056C139.247 35.7813 138.463 36.144 137.461 36.144ZM137.861 34.256C138.415 34.256 138.885 34.0587 139.269 33.664C139.653 33.2693 139.845 32.7573 139.845 32.128C139.845 31.4987 139.653 30.976 139.269 30.56C138.895 30.144 138.426 29.936 137.861 29.936C137.285 29.936 136.805 30.1387 136.421 30.544C136.047 30.9387 135.861 31.4667 135.861 32.128C135.861 32.7573 136.047 33.2693 136.421 33.664C136.794 34.0587 137.274 34.256 137.861 34.256ZM143.837 36V28.176H145.933V29.312H145.965C146.584 28.48 147.368 28.064 148.317 28.064H148.477V30.352C148.328 30.3413 148.141 30.336 147.917 30.336C147.288 30.336 146.797 30.528 146.445 30.912C146.104 31.2853 145.933 31.776 145.933 32.384V36H143.837ZM157.499 36.144C156.326 36.144 155.361 35.7707 154.603 35.024C153.846 34.2773 153.467 33.3067 153.467 32.112C153.467 30.9067 153.846 29.9307 154.603 29.184C155.361 28.4373 156.347 28.064 157.563 28.064C158.203 28.064 158.817 28.1867 159.403 28.432C159.99 28.6667 160.481 29.0133 160.875 29.472L159.499 30.768C159.051 30.2133 158.454 29.936 157.707 29.936C157.078 29.936 156.566 30.1387 156.171 30.544C155.787 30.9387 155.595 31.456 155.595 32.096C155.595 32.7467 155.787 33.2693 156.171 33.664C156.566 34.0587 157.078 34.256 157.707 34.256C158.475 34.256 159.089 33.9733 159.547 33.408L160.907 34.72C160.139 35.6693 159.003 36.144 157.499 36.144ZM166.081 36.144C164.843 36.144 163.841 35.7653 163.073 35.008C162.305 34.2507 161.921 33.28 161.921 32.096C161.921 30.9227 162.305 29.9573 163.073 29.2C163.841 28.4427 164.843 28.064 166.081 28.064C167.297 28.064 168.289 28.4373 169.057 29.184C169.835 29.9307 170.225 30.9013 170.225 32.096C170.225 33.2907 169.835 34.2667 169.057 35.024C168.289 35.7707 167.297 36.144 166.081 36.144ZM166.081 34.256C166.646 34.256 167.121 34.0533 167.505 33.648C167.899 33.2427 168.097 32.7253 168.097 32.096C168.097 31.456 167.905 30.9387 167.521 30.544C167.137 30.1387 166.657 29.936 166.081 29.936C165.483 29.936 164.993 30.144 164.609 30.56C164.235 30.9653 164.049 31.4773 164.049 32.096C164.049 32.7147 164.235 33.232 164.609 33.648C164.993 34.0533 165.483 34.256 166.081 34.256ZM171.868 36V28.176H173.964V29.184H173.996C174.625 28.4373 175.457 28.064 176.492 28.064C178.38 28.064 179.324 29.1627 179.324 31.36V36H177.228V31.888C177.228 31.1733 177.105 30.672 176.86 30.384C176.615 30.0853 176.236 29.936 175.724 29.936C175.18 29.936 174.748 30.1227 174.428 30.496C174.119 30.8587 173.964 31.3867 173.964 32.08V36H171.868Z" fill="white"/>
<path fill-rule="evenodd" clip-rule="evenodd" d="M219.249 21.873C219.239 19.5942 217.388 17.75 215.107 17.75C214.54 17.75 213.985 17.8577 213.508 18.07L198.414 24.48C196.263 25.3898 194.75 27.5216 194.75 30.0002V38.1075C194.75 40.395 196.604 42.25 198.893 42.25C199.473 42.25 200.025 42.1299 200.527 41.9143L215.557 35.5327C217.723 34.629 219.25 32.4901 219.25 30.0002L219.249 21.873Z" fill="white"/>
<path fill-rule="evenodd" clip-rule="evenodd" d="M205.363 33.2547C205.187 33.2547 205.044 33.0967 205.044 32.9018V25.446C205.044 25.251 205.187 25.0928 205.363 25.0928C205.539 25.0928 205.682 25.251 205.682 25.446V32.9018C205.682 33.0967 205.539 33.2547 205.363 33.2547Z" fill="#FC4C02" stroke="#FC4C02" stroke-width="0.3"/>
<path fill-rule="evenodd" clip-rule="evenodd" d="M208.133 32.9222V27.0927C208.133 26.8953 207.99 26.7354 207.813 26.7354C207.638 26.7354 207.495 26.8953 207.495 27.0927V32.9222C207.495 33.1195 207.638 33.2796 207.813 33.2796C207.99 33.2796 208.133 33.1195 208.133 32.9222Z" fill="#FC4C02" stroke="#FC4C02" stroke-width="0.3"/>
<path fill-rule="evenodd" clip-rule="evenodd" d="M208.133 25.4206V25.4023C208.133 25.2314 207.99 25.0928 207.813 25.0928C207.638 25.0928 207.495 25.2314 207.495 25.4023V25.4206C207.495 25.5916 207.638 25.73 207.813 25.73C207.99 25.73 208.133 25.5916 208.133 25.4206Z" fill="#FC4C02" stroke="#FC4C02" stroke-width="0.3"/>
<path fill-rule="evenodd" clip-rule="evenodd" d="M203.149 32.4692C203.29 32.3296 203.29 32.1032 203.149 31.9639C203.009 31.8241 202.781 31.8241 202.64 31.9639C201.601 32.9937 199.911 32.9937 198.872 31.9639C197.833 30.9325 197.833 29.2554 198.872 28.2247C199.375 27.7256 200.045 27.4505 200.756 27.4505C201.468 27.4505 202.137 27.7256 202.64 28.2247C202.781 28.3646 203.009 28.3646 203.149 28.2247C203.29 28.0849 203.29 27.8588 203.149 27.719C202.51 27.0846 201.66 26.7354 200.756 26.7354C199.852 26.7354 199.002 27.0846 198.362 27.719C197.043 29.0285 197.043 31.1591 198.362 32.4692C199.022 33.124 199.889 33.4512 200.756 33.4512C201.623 33.4512 202.489 33.124 203.149 32.4692Z" fill="#FC4C02" stroke="#FC4C02" stroke-width="0.3"/>
<path fill-rule="evenodd" clip-rule="evenodd" d="M210.661 34.7121V30.0863C210.661 28.632 211.847 27.4487 213.304 27.4487C214.762 27.4487 215.948 28.632 215.948 30.0863C215.948 31.5409 214.762 32.7238 213.304 32.7238C212.464 32.7238 211.895 32.4034 211.891 32.4016C211.721 32.302 211.501 32.3584 211.402 32.5285C211.302 32.6987 211.359 32.917 211.529 33.0172C211.559 33.0343 212.26 33.4374 213.304 33.4374C215.156 33.4374 216.662 31.9341 216.662 30.0863C216.662 28.2385 215.156 26.7354 213.304 26.7354C211.453 26.7354 209.946 28.2385 209.946 30.0863V34.7121C209.946 34.9088 210.107 35.0689 210.304 35.0689C210.501 35.0689 210.661 34.9088 210.661 34.7121Z" fill="#FC4C02" stroke="#FC4C02" stroke-width="0.3"/>
<path fill-rule="evenodd" clip-rule="evenodd" d="M219.187 37.0783C219.187 37.647 218.726 38.1077 218.157 38.1077C217.589 38.1077 217.128 37.647 217.128 37.0783C217.128 36.5095 217.589 36.0488 218.157 36.0488C218.726 36.0488 219.187 36.5095 219.187 37.0783ZM219.025 37.0783C219.025 36.5948 218.635 36.1995 218.157 36.1995C217.68 36.1995 217.293 36.5948 217.293 37.0783C217.293 37.5617 217.68 37.957 218.157 37.957C218.635 37.957 219.025 37.5617 219.025 37.0783ZM218.59 37.6413H218.408L218.149 37.1806H217.978V37.6413H217.822V36.5124H218.206C218.402 36.5124 218.561 36.6602 218.561 36.8508C218.561 37.0157 218.459 37.1181 218.32 37.1607L218.59 37.6413ZM218.402 36.8508C218.402 36.737 218.314 36.6517 218.189 36.6517H217.978V37.047H218.189C218.314 37.047 218.402 36.9645 218.402 36.8508Z" fill="white"/>
</g>
<path d="M18.87 82.501V75.401H21.13C22.2433 75.401 23.1367 75.731 23.81 76.391C24.4833 77.0443 24.82 77.901 24.82 78.961C24.82 80.021 24.49 80.8776 23.83 81.531C23.1767 82.1776 22.2867 82.501 21.16 82.501H18.87ZM20.08 81.421H21.09C21.83 81.421 22.4267 81.191 22.88 80.731C23.34 80.2643 23.57 79.6743 23.57 78.961C23.57 78.241 23.3433 77.6476 22.89 77.181C22.4433 76.7143 21.8633 76.481 21.15 76.481H20.08V81.421ZM29.9733 75.491L28.7333 76.941H27.5933L28.7433 75.501L29.9733 75.491ZM30.5533 80.001C30.5533 80.1276 30.5433 80.271 30.5233 80.431H26.9633C27.0366 80.7843 27.1966 81.061 27.4433 81.261C27.6966 81.461 28.0133 81.561 28.3933 81.561C28.9066 81.561 29.3166 81.371 29.6233 80.991L30.4033 81.661C29.9299 82.2743 29.2399 82.581 28.3333 82.581C27.5866 82.581 26.9766 82.351 26.5033 81.891C26.0366 81.431 25.8033 80.821 25.8033 80.061C25.8033 79.3143 26.0299 78.711 26.4833 78.251C26.9433 77.7843 27.5333 77.551 28.2533 77.551C28.9333 77.551 29.4866 77.781 29.9133 78.241C30.3399 78.701 30.5533 79.2876 30.5533 80.001ZM29.0133 78.831C28.8133 78.651 28.5566 78.561 28.2433 78.561C27.9299 78.561 27.6599 78.6476 27.4333 78.821C27.2133 78.9943 27.0633 79.2376 26.9833 79.551H29.4233C29.3499 79.2443 29.2133 79.0043 29.0133 78.831ZM34.3688 82.581C33.6888 82.581 33.1621 82.3376 32.7888 81.851H32.7688V82.501H31.6988V75.141H32.8188V78.201H32.8288C33.2088 77.7676 33.7254 77.551 34.3788 77.551C35.0588 77.551 35.6221 77.791 36.0688 78.271C36.5154 78.7443 36.7388 79.3476 36.7388 80.081C36.7388 80.8276 36.5154 81.431 36.0688 81.891C35.6221 82.351 35.0554 82.581 34.3688 82.581ZM33.1788 81.151C33.4521 81.4243 33.7921 81.561 34.1988 81.561C34.6054 81.561 34.9388 81.4243 35.1988 81.151C35.4654 80.8776 35.5988 80.5243 35.5988 80.091C35.5988 79.631 35.4621 79.261 35.1888 78.981C34.9221 78.701 34.5888 78.561 34.1888 78.561C33.7754 78.561 33.4354 78.7076 33.1688 79.001C32.9021 79.2876 32.7688 79.651 32.7688 80.091C32.7688 80.5243 32.9054 80.8776 33.1788 81.151ZM39.0697 76.681C38.923 76.8276 38.7464 76.901 38.5397 76.901C38.333 76.901 38.1564 76.8276 38.0097 76.681C37.863 76.5343 37.7897 76.3576 37.7897 76.151C37.7897 75.951 37.863 75.7776 38.0097 75.631C38.1564 75.4843 38.333 75.411 38.5397 75.411C38.7464 75.411 38.923 75.4843 39.0697 75.631C39.223 75.7776 39.2997 75.951 39.2997 76.151C39.2997 76.3576 39.223 76.5343 39.0697 76.681ZM37.9797 82.501V77.621H39.0997V82.501H37.9797ZM42.0843 82.581C41.6576 82.581 41.3243 82.4443 41.0843 82.171C40.8443 81.8976 40.7243 81.4943 40.7243 80.961V78.571H40.1243V77.621H40.7243V76.001L41.8443 75.881V77.621H43.2743V78.571H41.8443V80.851C41.8443 81.0976 41.881 81.2743 41.9543 81.381C42.0276 81.481 42.1476 81.531 42.3143 81.531C42.5343 81.531 42.7743 81.461 43.0343 81.321L43.3243 82.291C42.971 82.4843 42.5576 82.581 42.0843 82.581ZM46.3223 82.581C45.5623 82.581 44.9456 82.3443 44.4723 81.871C43.9989 81.3976 43.7623 80.7976 43.7623 80.071C43.7623 79.3443 43.9989 78.7443 44.4723 78.271C44.9456 77.791 45.5623 77.551 46.3223 77.551C47.0756 77.551 47.6889 77.7843 48.1623 78.251C48.6423 78.7176 48.8823 79.3243 48.8823 80.071C48.8823 80.811 48.6423 81.4143 48.1623 81.881C47.6889 82.3476 47.0756 82.581 46.3223 82.581ZM46.3223 81.561C46.7223 81.561 47.0589 81.421 47.3323 81.141C47.6056 80.861 47.7423 80.5043 47.7423 80.071C47.7423 79.6243 47.6056 79.261 47.3323 78.981C47.0656 78.701 46.7289 78.561 46.3223 78.561C45.9023 78.561 45.5589 78.7043 45.2923 78.991C45.0323 79.2776 44.9023 79.6376 44.9023 80.071C44.9023 80.491 45.0356 80.8443 45.3023 81.131C45.5689 81.4176 45.9089 81.561 46.3223 81.561ZM61.2511 82.561C60.2378 82.561 59.3878 82.2443 58.7011 81.611C58.0144 80.971 57.6711 80.091 57.6711 78.971C57.6711 77.9243 57.9878 77.0543 58.6211 76.361C59.2544 75.6676 60.1244 75.321 61.2311 75.321C62.3578 75.321 63.2911 75.7743 64.0311 76.681L63.1411 77.431C62.6144 76.7843 61.9778 76.461 61.2311 76.461C60.5511 76.461 59.9978 76.6943 59.5711 77.161C59.1444 77.621 58.9311 78.2243 58.9311 78.971C58.9311 79.6976 59.1478 80.291 59.5811 80.751C60.0144 81.2043 60.5711 81.431 61.2511 81.431C62.0044 81.431 62.6411 81.1076 63.1611 80.461L64.0511 81.221C63.3311 82.1143 62.3978 82.561 61.2511 82.561ZM65.1363 82.501V77.621H66.2563V78.351H66.2763C66.6763 77.8176 67.1796 77.551 67.7863 77.551H67.9263V78.801C67.7529 78.7876 67.6396 78.781 67.5863 78.781C67.1729 78.781 66.8463 78.9143 66.6063 79.181C66.3729 79.441 66.2563 79.7776 66.2563 80.191V82.501H65.1363ZM72.6002 75.491L71.3602 76.941H70.2202L71.3702 75.501L72.6002 75.491ZM73.1802 80.001C73.1802 80.1276 73.1702 80.271 73.1502 80.431H69.5902C69.6636 80.7843 69.8236 81.061 70.0702 81.261C70.3236 81.461 70.6402 81.561 71.0202 81.561C71.5336 81.561 71.9436 81.371 72.2502 80.991L73.0302 81.661C72.5569 82.2743 71.8669 82.581 70.9602 82.581C70.2136 82.581 69.6036 82.351 69.1302 81.891C68.6636 81.431 68.4302 80.821 68.4302 80.061C68.4302 79.3143 68.6569 78.711 69.1102 78.251C69.5702 77.7843 70.1602 77.551 70.8802 77.551C71.5602 77.551 72.1136 77.781 72.5402 78.241C72.9669 78.701 73.1802 79.2876 73.1802 80.001ZM71.6402 78.831C71.4402 78.651 71.1836 78.561 70.8702 78.561C70.5569 78.561 70.2869 78.6476 70.0602 78.821C69.8402 78.9943 69.6902 79.2376 69.6102 79.551H72.0502C71.9769 79.2443 71.8402 79.0043 71.6402 78.831ZM76.3957 82.581C75.709 82.581 75.1424 82.351 74.6957 81.891C74.249 81.431 74.0257 80.8276 74.0257 80.081C74.0257 79.3476 74.249 78.7443 74.6957 78.271C75.149 77.791 75.7124 77.551 76.3857 77.551C77.0524 77.551 77.5724 77.7743 77.9457 78.221H77.9557V75.141H79.0657V82.501H77.9957V81.841H77.9857C77.6057 82.3343 77.0757 82.581 76.3957 82.581ZM75.5557 81.151C75.8224 81.4243 76.159 81.561 76.5657 81.561C76.9724 81.561 77.3124 81.4243 77.5857 81.151C77.859 80.8776 77.9957 80.5243 77.9957 80.091C77.9957 79.651 77.8624 79.2876 77.5957 79.001C77.329 78.7076 76.989 78.561 76.5757 78.561C76.1757 78.561 75.839 78.701 75.5657 78.981C75.299 79.261 75.1657 79.631 75.1657 80.091C75.1657 80.5243 75.2957 80.8776 75.5557 81.151ZM81.6869 76.681C81.5402 76.8276 81.3635 76.901 81.1569 76.901C80.9502 76.901 80.7735 76.8276 80.6269 76.681C80.4802 76.5343 80.4069 76.3576 80.4069 76.151C80.4069 75.951 80.4802 75.7776 80.6269 75.631C80.7735 75.4843 80.9502 75.411 81.1569 75.411C81.3635 75.411 81.5402 75.4843 81.6869 75.631C81.8402 75.7776 81.9169 75.951 81.9169 76.151C81.9169 76.3576 81.8402 76.5343 81.6869 76.681ZM80.5969 82.501V77.621H81.7169V82.501H80.5969ZM84.7015 82.581C84.2748 82.581 83.9415 82.4443 83.7015 82.171C83.4615 81.8976 83.3415 81.4943 83.3415 80.961V78.571H82.7415V77.621H83.3415V76.001L84.4615 75.881V77.621H85.8915V78.571H84.4615V80.851C84.4615 81.0976 84.4982 81.2743 84.5715 81.381C84.6448 81.481 84.7648 81.531 84.9315 81.531C85.1515 81.531 85.3915 81.461 85.6515 81.321L85.9415 82.291C85.5882 82.4843 85.1748 82.581 84.7015 82.581ZM88.9395 82.581C88.1795 82.581 87.5628 82.3443 87.0895 81.871C86.6161 81.3976 86.3795 80.7976 86.3795 80.071C86.3795 79.3443 86.6161 78.7443 87.0895 78.271C87.5628 77.791 88.1795 77.551 88.9395 77.551C89.6928 77.551 90.3061 77.7843 90.7795 78.251C91.2595 78.7176 91.4995 79.3243 91.4995 80.071C91.4995 80.811 91.2595 81.4143 90.7795 81.881C90.3061 82.3476 89.6928 82.581 88.9395 82.581ZM88.9395 81.561C89.3395 81.561 89.6761 81.421 89.9495 81.141C90.2228 80.861 90.3595 80.5043 90.3595 80.071C90.3595 79.6243 90.2228 79.261 89.9495 78.981C89.6828 78.701 89.3461 78.561 88.9395 78.561C88.5195 78.561 88.1761 78.7043 87.9095 78.991C87.6495 79.2776 87.5195 79.6376 87.5195 80.071C87.5195 80.491 87.6528 80.8443 87.9195 81.131C88.1861 81.4176 88.5261 81.561 88.9395 81.561ZM100.608 82.501V75.401H105.078V76.481H101.818V78.441H104.448V79.521H101.818V81.421H105.288V82.501H100.608ZM106.586 82.501V78.571H106.046V77.621H106.586V76.731C106.586 76.1843 106.712 75.771 106.966 75.491C107.219 75.2043 107.586 75.061 108.066 75.061C108.532 75.061 108.939 75.1743 109.286 75.401L109.036 76.341C108.682 76.1743 108.412 76.091 108.226 76.091C107.879 76.091 107.706 76.3443 107.706 76.851V77.621H108.906V78.571H107.706V82.501H106.586ZM114.206 80.001C114.206 80.1276 114.196 80.271 114.176 80.431H110.616C110.689 80.7843 110.849 81.061 111.096 81.261C111.349 81.461 111.666 81.561 112.046 81.561C112.559 81.561 112.969 81.371 113.276 80.991L114.056 81.661C113.582 82.2743 112.892 82.581 111.986 82.581C111.239 82.581 110.629 82.351 110.156 81.891C109.689 81.431 109.456 80.821 109.456 80.061C109.456 79.3143 109.682 78.711 110.136 78.251C110.596 77.7843 111.186 77.551 111.906 77.551C112.586 77.551 113.139 77.781 113.566 78.241C113.992 78.701 114.206 79.2876 114.206 80.001ZM112.666 78.831C112.466 78.651 112.209 78.561 111.896 78.561C111.582 78.561 111.312 78.6476 111.086 78.821C110.866 78.9943 110.716 79.2376 110.636 79.551H113.076C113.002 79.2443 112.866 79.0043 112.666 78.831ZM117.561 82.581C116.834 82.581 116.238 82.3476 115.771 81.881C115.304 81.4143 115.071 80.811 115.071 80.071C115.071 79.3243 115.308 78.7176 115.781 78.251C116.254 77.7843 116.861 77.551 117.601 77.551C117.994 77.551 118.374 77.631 118.741 77.791C119.108 77.9443 119.411 78.1676 119.651 78.461L118.891 79.121C118.571 78.7476 118.161 78.561 117.661 78.561C117.228 78.561 116.878 78.701 116.611 78.981C116.344 79.2543 116.211 79.6143 116.211 80.061C116.211 80.5076 116.344 80.871 116.611 81.151C116.878 81.4243 117.228 81.561 117.661 81.561C118.194 81.561 118.604 81.371 118.891 80.991L119.661 81.671C119.194 82.2776 118.494 82.581 117.561 82.581ZM122.133 82.581C121.706 82.581 121.373 82.4443 121.133 82.171C120.893 81.8976 120.773 81.4943 120.773 80.961V78.571H120.173V77.621H120.773V76.001L121.893 75.881V77.621H123.323V78.571H121.893V80.851C121.893 81.0976 121.93 81.2743 122.003 81.381C122.076 81.481 122.196 81.531 122.363 81.531C122.583 81.531 122.823 81.461 123.083 81.321L123.373 82.291C123.02 82.4843 122.606 82.581 122.133 82.581ZM125.495 76.681C125.349 76.8276 125.172 76.901 124.965 76.901C124.759 76.901 124.582 76.8276 124.435 76.681C124.289 76.5343 124.215 76.3576 124.215 76.151C124.215 75.951 124.289 75.7776 124.435 75.631C124.582 75.4843 124.759 75.411 124.965 75.411C125.172 75.411 125.349 75.4843 125.495 75.631C125.649 75.7776 125.725 75.951 125.725 76.151C125.725 76.3576 125.649 76.5343 125.495 76.681ZM124.405 82.501V77.621H125.525V82.501H124.405ZM128.46 82.501L126.53 77.621H127.73L129 81.101H129.01L130.28 77.621H131.47L129.53 82.501H128.46ZM134.369 82.581C133.609 82.581 132.992 82.3443 132.519 81.871C132.046 81.3976 131.809 80.7976 131.809 80.071C131.809 79.3443 132.046 78.7443 132.519 78.271C132.992 77.791 133.609 77.551 134.369 77.551C135.122 77.551 135.736 77.7843 136.209 78.251C136.689 78.7176 136.929 79.3243 136.929 80.071C136.929 80.811 136.689 81.4143 136.209 81.881C135.736 82.3476 135.122 82.581 134.369 82.581ZM134.369 81.561C134.769 81.561 135.106 81.421 135.379 81.141C135.652 80.861 135.789 80.5043 135.789 80.071C135.789 79.6243 135.652 79.261 135.379 78.981C135.112 78.701 134.776 78.561 134.369 78.561C133.949 78.561 133.606 78.7043 133.339 78.991C133.079 79.2776 132.949 79.6376 132.949 80.071C132.949 80.491 133.082 80.8443 133.349 81.131C133.616 81.4176 133.956 81.561 134.369 81.561Z" fill="#2C2E47"/>
<path d="M52.8141 82.501V75.141H53.6241V82.501H52.8141ZM95.4313 82.501V75.141H96.2413V82.501H95.4313Z" fill="#BABBC3"/>
<g clip-path="url(#clip0_782_108294)">
<g clip-path="url(#clip1_782_108294)">
<rect x="159.924" y="72.998" width="6.15156" height="11.0061" fill="#FF5F00"/>
<path d="M160.314 78.5017C160.312 76.3536 161.302 74.3239 162.999 72.9976C160.117 70.7424 155.978 71.0709 153.49 73.7523C151.003 76.4337 151.003 80.5677 153.49 83.2491C155.978 85.9305 160.117 86.259 162.999 84.0038C161.303 82.6779 160.313 80.6491 160.314 78.5017Z" fill="#EB001B"/>
<path d="M174.375 78.5019C174.375 81.1817 172.838 83.6262 170.417 84.7973C167.996 85.9683 165.116 85.6603 163 84.004C164.696 82.6771 165.686 80.6485 165.686 78.501C165.686 76.3535 164.696 74.3249 163 72.9979C165.116 71.3417 167.996 71.0337 170.417 72.2047C172.838 73.3757 174.375 75.8202 174.375 78.5V78.5019Z" fill="#F79E1B"/>
<path fill-rule="evenodd" clip-rule="evenodd" d="M173.755 82.6399V82.9998H173.699V82.6399H173.562V82.5654H173.881V82.6399H173.755ZM174.375 82.5654V82.9998L174.319 83.0029V82.674L174.214 82.9564H174.142L174.037 82.674V82.9998H173.967V82.5654H174.053L174.166 82.8757L174.278 82.5654H174.375Z" fill="#F79E1B"/>
<mask id="mask0_782_108294" style="mask-type:luminance" maskUnits="userSpaceOnUse" x="182" y="74" width="26" height="9">
<path fill-rule="evenodd" clip-rule="evenodd" d="M198.735 74.126C196.794 74.1377 195.431 75.2847 195.42 76.9231C195.407 78.1422 196.403 78.8215 197.154 79.2266C197.924 79.6414 198.183 79.9075 198.18 80.2783C198.174 80.8463 197.565 81.0966 196.995 81.1064C196 81.1236 195.422 80.809 194.962 80.5718L194.604 82.4263C195.066 82.661 195.92 82.8657 196.805 82.876C198.885 82.876 200.245 81.7402 200.252 79.9802C200.26 77.7469 197.459 77.6237 197.478 76.6257C197.485 76.3223 197.746 75.9997 198.318 75.9169C198.601 75.8762 199.384 75.8445 200.27 76.2956L200.617 74.501C200.147 74.3122 199.543 74.1305 198.794 74.126H198.735ZM203.962 74.2809C203.582 74.2809 203.262 74.5252 203.119 74.9015L200.149 82.7439H202.227L202.64 81.4793H205.18L205.419 82.7439H207.25L205.652 74.2809H203.962ZM204.252 76.5673L204.852 79.7449H203.21L204.252 76.5673ZM192.902 74.2809L191.264 82.7439H193.244L194.881 74.2809H192.902ZM189.973 74.2807L187.912 80.0407L187.078 75.1433C186.981 74.5965 186.594 74.2807 186.165 74.2807H182.797L182.75 74.5261C183.441 74.6925 184.227 74.9605 184.703 75.2462C184.994 75.4212 185.078 75.5739 185.173 75.9897L186.752 82.7437H188.844L192.052 74.2807H189.973Z" fill="white"/>
</mask>
<g mask="url(#mask0_782_108294)">
<path fill-rule="evenodd" clip-rule="evenodd" d="M198.794 74.126L198.861 74.1269C199.534 74.1406 200.085 74.2958 200.528 74.4657L200.617 74.501L200.27 76.2956L200.226 76.2738C199.387 75.8598 198.647 75.8753 198.347 75.9129L198.318 75.9169L198.283 75.9223C197.747 76.0109 197.495 76.3155 197.479 76.6071L197.478 76.6257L197.478 76.6554C197.514 77.6166 200.206 77.7663 200.251 79.9145L200.252 79.9802L200.251 80.0328C200.218 81.7455 198.891 82.8537 196.867 82.8756L196.805 82.876L196.749 82.8751C195.902 82.8574 195.092 82.6647 194.634 82.4412L194.604 82.4263L194.962 80.5718L195.123 80.6545C195.549 80.8712 196.089 81.1114 196.94 81.107L196.995 81.1064L197.023 81.1057C197.575 81.0886 198.155 80.8453 198.18 80.3059L198.18 80.2783L198.18 80.2592C198.174 79.911 197.929 79.6529 197.232 79.269L197.071 79.1814C196.341 78.7765 195.431 78.1145 195.42 76.9664L195.42 76.9231L195.421 76.8741C195.458 75.278 196.787 74.1601 198.678 74.1267L198.735 74.126H198.794ZM194.881 74.2809L193.244 82.7439H191.264L192.902 74.2809H194.881ZM186.165 74.2807L186.191 74.2811C186.601 74.2932 186.968 74.5947 187.072 75.1108L187.078 75.1433L187.912 80.0407L189.973 74.2807H192.052L188.844 82.7437H186.752L185.165 75.9547C185.075 75.5769 184.991 75.4255 184.728 75.2616L184.703 75.2462L184.659 75.2203C184.195 74.953 183.468 74.7035 182.813 74.5415L182.75 74.5261L182.797 74.2807H186.165ZM205.652 74.2809L207.25 82.7439H205.419L205.18 81.4793H202.64L202.227 82.7439H200.149L203.119 74.9015L203.131 74.8728C203.274 74.5223 203.575 74.2932 203.933 74.2813L203.962 74.2809H205.652Z" fill="url(#paint0_linear_782_108294)"/>
<path fill-rule="evenodd" clip-rule="evenodd" d="M204.095 76.5986L204.662 79.8323H203.109L204.095 76.5986Z" fill="url(#paint1_linear_782_108294)"/>
</g>
<path d="M234 85.501H227.042H220V78.4314V71.501H226.948H234V78.5005V85.501Z" fill="white"/>
<path d="M234 85.501V83.2825H232.311L231.442 82.3217L230.567 83.2825H224.999V78.8011H223.203L225.431 73.7561H227.581L228.348 75.4846V73.7561H231.01L231.472 75.0586L231.937 73.7561H234V71.501H220V85.501H234ZM232.595 82.7216H234L232.142 80.7515L234 78.8034H232.618L231.47 80.0565L230.334 78.8025H228.929L230.776 80.7616L228.929 82.7206H230.294L231.447 81.4556L232.594 82.7206L232.595 82.7216ZM232.924 80.7542L234 81.898V79.6178L232.924 80.7529V80.7542ZM226.662 81.8148V81.2049H228.876V80.3205H226.662V79.7102H228.929V78.8034H225.594V82.7216H228.929V81.8148H226.662ZM232.942 78.2352H234V74.317H232.353L231.474 76.7574L230.602 74.317H228.929V78.2352H229.987V75.4923L230.993 78.2374H231.934L232.94 75.4891V78.2374L232.942 78.2352ZM227.727 78.2352H228.93L227.2 74.317H225.823L224.093 78.2352H225.268L225.593 77.4514H227.395L227.726 78.2352H227.727ZM227.027 76.5725H225.962L226.494 75.2915L227.026 76.5725H227.027Z" fill="#0079C1"/>
<path d="M254.753 76.9444V74.5635H246.75V82.4385H254.753V80.1291C254.622 80.0555 254.508 79.9705 254.412 79.8739L254.407 79.8684C254.273 79.7273 254.213 79.5477 254.239 79.3627C254.262 79.1904 254.351 79.0427 254.496 78.9349C254.585 78.8672 254.672 78.8285 254.753 78.8075V78.6336C254.752 78.6329 254.751 78.632 254.75 78.6313C254.492 78.4105 254.355 78.1233 254.355 77.8009C254.355 77.5173 254.442 77.2742 254.615 77.0784C254.658 77.0303 254.704 76.9859 254.753 76.9444ZM250.592 78.7334C250.592 79.3474 250.119 79.8374 249.344 79.8374C248.75 79.8374 248.137 79.5058 248.137 78.6393V76.3619L248.801 76.2178V78.5452C248.801 78.8421 248.856 79.2086 249.374 79.2086C249.837 79.2086 249.928 78.8966 249.928 78.4907V76.3619L250.592 76.2178V78.7334ZM252.267 79.8369C252.001 79.8369 251.753 79.7551 251.547 79.6147V80.5052L250.908 80.6494V77.17L251.549 77.0175V77.3877C251.755 77.2461 251.999 77.1666 252.267 77.1666C252.987 77.1666 253.57 77.7644 253.57 78.5019C253.57 79.2392 252.987 79.8369 252.267 79.8369Z" fill="#F4921F"/>
<path d="M252.226 77.7383C251.798 77.7383 251.486 78.0899 251.486 78.5009C251.486 78.9118 251.798 79.2632 252.226 79.2632C252.654 79.2632 252.966 78.9115 252.966 78.5009C252.966 78.0899 252.654 77.7383 252.226 77.7383Z" fill="#F4921F"/>
<path d="M256.67 78.4527C256.508 78.3666 256.288 78.2978 256.008 78.2465C255.803 78.2098 255.647 78.1694 255.541 78.1255C255.435 78.0815 255.362 78.0311 255.323 77.9741C255.284 77.9174 255.265 77.854 255.265 77.7843C255.265 77.6706 255.322 77.5817 255.438 77.5176C255.553 77.4536 255.701 77.4215 255.88 77.4215C256.029 77.4215 256.159 77.4406 256.271 77.4791C256.383 77.5176 256.485 77.5846 256.578 77.6799C256.63 77.7275 256.694 77.7579 256.768 77.7706C256.843 77.7834 256.906 77.7715 256.959 77.7348C257.018 77.6945 257.05 77.645 257.054 77.5862C257.057 77.5277 257.037 77.4707 256.992 77.4158C256.88 77.2765 256.73 77.1674 256.542 77.0885C256.354 77.0096 256.137 76.9702 255.891 76.9702C255.697 76.9702 255.513 77.0005 255.34 77.0609C255.167 77.1213 255.026 77.2132 254.918 77.336C254.81 77.4588 254.756 77.6138 254.756 77.8007C254.756 78.0097 254.842 78.1877 255.013 78.3342C255.184 78.481 255.458 78.589 255.835 78.6588C256.126 78.7103 256.329 78.777 256.444 78.8595C256.56 78.942 256.618 79.0421 256.618 79.1592C256.614 79.2766 256.553 79.3737 256.436 79.4507C256.319 79.5278 256.143 79.5663 255.908 79.5663C255.732 79.5663 255.574 79.5369 255.432 79.4783C255.291 79.4197 255.183 79.35 255.108 79.2693C255.063 79.218 255.007 79.1886 254.94 79.1813C254.873 79.174 254.806 79.1959 254.739 79.2474C254.679 79.2914 254.645 79.3473 254.636 79.4152C254.626 79.4831 254.648 79.5444 254.7 79.5995C254.827 79.7279 255 79.8306 255.22 79.9074C255.44 79.9845 255.673 80.023 255.919 80.023C256.176 80.023 256.393 79.9845 256.57 79.9074C256.747 79.8304 256.884 79.7251 256.979 79.5911C257.074 79.4573 257.121 79.3042 257.121 79.1319C257.121 78.9888 257.086 78.8616 257.017 78.7497C256.948 78.638 256.833 78.5391 256.67 78.4527Z" fill="#485756"/>
<path d="M258.182 76.9922C258.104 76.9922 258.041 77.0161 257.992 77.0637C257.944 77.1114 257.919 77.1738 257.919 77.2509V79.7425C257.919 79.8196 257.944 79.882 257.992 79.9296C258.041 79.9773 258.104 80.0012 258.182 80.0012C258.261 80.0012 258.324 79.9775 258.373 79.9296C258.421 79.882 258.445 79.8196 258.445 79.7425V77.2509C258.445 77.1738 258.421 77.1116 258.373 77.0637C258.324 77.0161 258.26 76.9922 258.182 76.9922Z" fill="#485756"/>
<path d="M258.741 75.4521C258.67 75.4521 258.609 75.4779 258.557 75.5292L257.981 76.0957C257.94 76.1397 257.92 76.1967 257.92 76.2662C257.92 76.3396 257.945 76.4009 257.995 76.4506C258.045 76.5001 258.108 76.5249 258.183 76.5249C258.257 76.5249 258.317 76.5012 258.361 76.4533L258.932 75.8922C258.962 75.8704 258.981 75.8437 258.99 75.8125C259 75.7812 259.004 75.7493 259.004 75.7163C259.004 75.6429 258.98 75.5807 258.932 75.5292C258.883 75.4777 258.82 75.4521 258.741 75.4521Z" fill="#485756"/>
<path d="M262.664 77.025C262.597 76.9958 262.531 76.9912 262.468 77.0113C262.405 77.0316 262.358 77.071 262.328 77.1296L261.333 79.2646L260.327 77.1296C260.297 77.071 260.252 77.0316 260.193 77.0113C260.133 76.9912 260.074 76.9958 260.014 77.025C259.947 77.0544 259.902 77.0974 259.88 77.1542C259.857 77.2112 259.859 77.2688 259.886 77.3274L261.093 79.8302C261.149 79.9403 261.231 79.9952 261.339 79.9952C261.447 79.9952 261.527 79.9403 261.579 79.8302L262.776 77.3219C262.805 77.267 262.809 77.21 262.787 77.1514C262.764 77.0929 262.723 77.0507 262.664 77.025Z" fill="#485756"/>
<path d="M265.436 77.171C265.205 77.0372 264.943 76.9702 264.648 76.9702C264.358 76.9702 264.096 77.0372 263.863 77.171C263.63 77.305 263.445 77.4864 263.31 77.7155C263.173 77.9447 263.105 78.2059 263.105 78.4992C263.105 78.7889 263.169 79.0491 263.296 79.2802C263.422 79.5113 263.596 79.6927 263.816 79.8247C264.035 79.9567 264.283 80.0228 264.559 80.0228C264.835 80.0228 265.08 79.9578 265.294 79.8274C265.438 79.7397 265.562 79.6303 265.666 79.5002V79.7477C265.666 79.8211 265.691 79.8824 265.741 79.932C265.792 79.9815 265.854 80.0063 265.929 80.0063C266.007 80.0063 266.07 79.9815 266.119 79.932C266.167 79.8826 266.191 79.8213 266.191 79.7477V78.499C266.191 78.2093 266.123 77.9488 265.987 77.718C265.851 77.4873 265.667 77.3048 265.436 77.171ZM265.551 79.0439C265.46 79.2053 265.337 79.3327 265.182 79.4261C265.027 79.5195 264.849 79.5663 264.648 79.5663C264.454 79.5663 264.278 79.5195 264.12 79.4261C263.961 79.3327 263.837 79.2053 263.745 79.0439C263.654 78.8826 263.609 78.7011 263.609 78.4994C263.609 78.2941 263.654 78.1109 263.745 77.9493C263.837 77.7879 263.961 77.6605 264.12 77.5671C264.278 77.4737 264.454 77.4269 264.648 77.4269C264.849 77.4269 265.027 77.4737 265.182 77.5671C265.337 77.6605 265.46 77.7879 265.551 77.9493C265.642 78.1106 265.688 78.2941 265.688 78.4994C265.688 78.7011 265.642 78.8826 265.551 79.0439Z" fill="#485756"/>
<path d="M267.885 79.4951H267.745C267.656 79.4951 267.583 79.4493 267.527 79.3577C267.471 79.2661 267.443 79.1487 267.443 79.0056V75.9583C267.443 75.8812 267.42 75.8199 267.373 75.7739C267.327 75.7281 267.264 75.7051 267.186 75.7051C267.108 75.7051 267.045 75.7281 266.999 75.7739C266.952 75.8197 266.929 75.8812 266.929 75.9583V79.0056C266.929 79.2 266.963 79.3714 267.032 79.52C267.101 79.6686 267.197 79.7859 267.32 79.8721C267.443 79.9582 267.585 80.0013 267.745 80.0013H267.779C267.876 80.0013 267.956 79.9785 268.019 79.9325C268.082 79.8867 268.114 79.8251 268.114 79.7481C268.114 79.6711 268.094 79.6098 268.053 79.5637C268.012 79.5181 267.956 79.4951 267.885 79.4951Z" fill="#485756"/>
<path d="M271.183 78.6123C271.228 78.5701 271.25 78.5161 271.25 78.45C271.25 78.1603 271.194 77.9046 271.082 77.6826C270.97 77.4609 270.809 77.2865 270.599 77.1601C270.388 77.0336 270.139 76.9702 269.852 76.9702C269.562 76.9702 269.304 77.0354 269.078 77.1655C268.853 77.2957 268.677 77.4755 268.55 77.7045C268.423 77.9338 268.36 78.1986 268.36 78.4995C268.36 78.7964 268.427 79.0596 268.561 79.2887C268.695 79.518 268.882 79.6975 269.12 79.8277C269.358 79.9578 269.631 80.023 269.936 80.023C270.108 80.023 270.288 79.9909 270.479 79.9268C270.669 79.8628 270.825 79.7812 270.948 79.682C271.008 79.6381 271.036 79.5859 271.032 79.5252C271.028 79.4649 270.996 79.4088 270.937 79.3575C270.892 79.3208 270.84 79.3035 270.78 79.3053C270.721 79.3071 270.665 79.3265 270.613 79.363C270.534 79.4218 270.433 79.4731 270.308 79.517C270.183 79.561 270.059 79.5831 269.936 79.5831C269.72 79.5831 269.529 79.5364 269.363 79.443C269.197 79.3495 269.067 79.2212 268.972 79.058C268.904 78.9423 268.861 78.8146 268.842 78.6758H271.01C271.08 78.6756 271.138 78.6547 271.183 78.6123ZM269.302 77.5507C269.456 77.4572 269.64 77.4105 269.852 77.4105C270.046 77.4105 270.212 77.4545 270.35 77.5425C270.488 77.6305 270.594 77.7506 270.668 77.9028C270.722 78.012 270.756 78.1323 270.771 78.2631H268.848C268.867 78.1469 268.901 78.0386 268.95 77.9386C269.03 77.7736 269.147 77.6441 269.302 77.5507Z" fill="#485756"/>
<path fill-rule="evenodd" clip-rule="evenodd" d="M284.316 83.7251L284.895 82.524L285.484 83.7251H284.316ZM284.447 81.7666L282.782 85.0089H283.698L284.052 84.274H285.763L286.135 85.0089H287.074L285.363 81.7666H284.447ZM289.04 83.1404H288.402V82.3149H289.075C289.424 82.3149 289.634 82.319 289.704 82.3265C289.844 82.3439 289.952 82.3865 290.029 82.4537C290.105 82.5213 290.144 82.6095 290.144 82.7188C290.144 82.8164 290.114 82.8981 290.056 82.9631C289.998 83.028 289.918 83.0737 289.815 83.1004C289.711 83.1272 289.453 83.1404 289.04 83.1404ZM290.369 83.8516C290.248 83.7529 290.094 83.6623 289.909 83.5798C290.283 83.5385 290.565 83.439 290.753 83.2799C290.942 83.1215 291.035 82.92 291.035 82.6768C291.035 82.4846 290.973 82.3142 290.849 82.1653C290.724 82.0163 290.559 81.9124 290.351 81.854C290.144 81.7956 289.813 81.7666 289.355 81.7666H287.538V85.0089H288.402V83.6576H288.577C288.776 83.6576 288.92 83.6693 289.012 83.6937C289.104 83.7178 289.191 83.7625 289.273 83.8279C289.354 83.8929 289.506 84.0509 289.729 84.3012L290.349 85.0089H291.381L290.859 84.3776C290.654 84.1257 290.491 83.95 290.369 83.8516ZM297.036 83.5803H299.179V83.0316H297.036V82.3149H299.338V81.7666H296.171V85.0089H299.422V84.4601H297.036V83.5803ZM299.855 81.7666V82.3149H301.125V85.0089H301.989V82.3149H303.25V81.7666H299.855ZM281.281 84.3391C281.116 84.45 280.919 84.5053 280.69 84.5053C280.379 84.5053 280.127 84.4181 279.933 84.2443C279.739 84.0702 279.642 83.7779 279.642 83.3679C279.642 82.9811 279.741 82.7014 279.937 82.5288C280.134 82.3562 280.39 82.2697 280.706 82.2697C280.934 82.2697 281.128 82.3185 281.288 82.4161C281.447 82.5135 281.553 82.6461 281.603 82.8138L282.458 82.6602C282.361 82.4003 282.215 82.2017 282.021 82.063C281.695 81.8294 281.27 81.7123 280.748 81.7123C280.151 81.7123 279.668 81.8616 279.3 82.1596C278.933 82.4582 278.75 82.8771 278.75 83.416C278.75 83.9263 278.933 84.328 279.298 84.6222C279.664 84.916 280.13 85.0635 280.697 85.0635C281.156 85.0635 281.534 84.9765 281.832 84.8034C282.131 84.6315 282.344 84.3672 282.472 84.0115L281.636 83.8162C281.565 84.0538 281.446 84.2283 281.281 84.3391ZM294.451 83.9411L292.692 81.7666H291.855V85.0089H292.654V82.8813L294.387 85.0089H295.25V81.7666H294.451V83.9411ZM290.934 73.4479C295.159 73.4479 298.66 75.0161 299.36 77.0761C299.443 76.8306 299.496 76.5793 299.496 76.3216C299.496 73.9008 295.663 71.9385 290.934 71.9385C286.205 71.9385 282.372 73.9008 282.372 76.3216C282.372 76.5793 282.424 76.8306 282.507 77.0761C283.207 75.0161 286.709 73.4479 290.934 73.4479ZM290.934 76.0558C295.159 76.0558 298.66 77.6242 299.36 79.6842C299.443 79.4393 299.496 79.1877 299.496 78.93C299.496 76.5092 295.663 74.5469 290.934 74.5469C286.205 74.5469 282.372 76.5092 282.372 78.93C282.372 79.1877 282.424 79.4393 282.507 79.6842C283.207 77.6242 286.709 76.0558 290.934 76.0558Z" fill="#EC1C24"/>
</g>
</g>
<defs>
<filter id="filter0_d_782_108294" x="0.5" y="0" width="324" height="72.001" filterUnits="userSpaceOnUse" color-interpolation-filters="sRGB">
<feFlood flood-opacity="0" result="BackgroundImageFix"/>
<feColorMatrix in="SourceAlpha" type="matrix" values="0 0 0 0 0 0 0 0 0 0 0 0 0 0 0 0 0 0 127 0" result="hardAlpha"/>
<feOffset dy="6"/>
<feGaussianBlur stdDeviation="6"/>
<feColorMatrix type="matrix" values="0 0 0 0 0.988235 0 0 0 0 0.298039 0 0 0 0 0.00784314 0 0 0 0.2 0"/>
<feBlend mode="normal" in2="BackgroundImageFix" result="effect1_dropShadow_782_108294"/>
<feBlend mode="normal" in="SourceGraphic" in2="effect1_dropShadow_782_108294" result="shape"/>
</filter>
<linearGradient id="paint0_linear_782_108294" x1="182.75" y1="82.8759" x2="207.25" y2="82.8759" gradientUnits="userSpaceOnUse">
<stop stop-color="#231F5D"/>
<stop offset="1" stop-color="#024DA1"/>
</linearGradient>
<linearGradient id="paint1_linear_782_108294" x1="203.109" y1="79.8323" x2="204.662" y2="79.8323" gradientUnits="userSpaceOnUse">
<stop stop-color="#231F5D"/>
<stop offset="1" stop-color="#024DA1"/>
</linearGradient>
<clipPath id="clip0_782_108294">
<rect width="159" height="17" fill="white" transform="translate(148 70.001)"/>
</clipPath>
<clipPath id="clip1_782_108294">
<rect width="156" height="17" fill="white" transform="translate(149 70.001)"/>
</clipPath>
</defs>
</svg>
